<svg xmlns="http://www.w3.org/2000/svg" width="32" height="32" viewBox="0 0 32 32">
    <rect width="32" height="32" rx="8" fill="#0057FF"/>
    <path d="M12 10C12 8.89543 12.8954 8 14 8H20C21.1046 8 22 8.89543 22 10V22C22 23.1046 21.1046 24 20 24H14C12.8954 24 12 23.1046 12 22V10Z" fill="white"/>
    <circle cx="14" cy="12" r="1" fill="#0057FF"/>
    <circle cx="20" cy="12" r="1" fill="#0057FF"/>
    <path d="M16 15C16 14.4477 16.4477 14 17 14H18C18.5523 14 19 14.4477 19 15C19 15.5523 18.5523 16 18 16H17C16.4477 16 16 15.5523 16 15Z" fill="#0057FF"/>
    <circle cx="17" cy="19" r="1" fill="#0057FF"/>
    <circle cx="19" cy="19" r="1" fill="#0057FF"/>
</svg>